<svg width="18" height="10" viewBox="0 0 18 10" fill="none" xmlns="http://www.w3.org/2000/svg">
<path fill-rule="evenodd" clip-rule="evenodd" d="M0 5C0 4.4477 0.44772 4 1 4H17C17.5523 4 18 4.4477 18 5C18 5.5523 17.5523 6 17 6H1C0.44772 6 0 5.5523 0 5Z" fill="#005FFF"/>
<path fill-rule="evenodd" clip-rule="evenodd" d="M12.2929 0.29289C12.6834 -0.09763 13.3166 -0.09763 13.7071 0.29289L17.7071 4.2929C18.0976 4.6834 18.0976 5.3166 17.7071 5.7071C17.3166 6.0976 16.6834 6.0976 16.2929 5.7071L12.2929 1.70711C11.9024 1.31658 11.9024 0.68342 12.2929 0.29289Z" fill="#005FFF"/>
<path fill-rule="evenodd" clip-rule="evenodd" d="M17.7071 4.29291C18.0976 4.68341 18.0976 5.31661 17.7071 5.70711L13.7071 9.70711C13.3166 10.0976 12.6834 10.0976 12.2929 9.70711C11.9024 9.31661 11.9024 8.68341 12.2929 8.29291L16.2929 4.29291C16.6834 3.90241 17.3166 3.90241 17.7071 4.29291Z" fill="#005FFF"/>
</svg>
