<svg width="24" height="24" viewBox="0 0 24 24" fill="none" xmlns="http://www.w3.org/2000/svg">
<g clip-path="url(#clip0_4312_359)">
<path d="M3.34 17H3.34C2.91727 16.269 2.58866 15.4875 2.362 14.674V14.674C3.83881 13.9229 4.4271 12.1168 3.67598 10.64C3.38844 10.0746 2.92912 9.61496 2.364 9.327C2.81604 7.69249 3.67673 6.19995 4.865 4.99C6.25409 5.8931 8.11228 5.49913 9.01538 4.11004C9.36133 3.57792 9.5296 2.9498 9.496 2.31601V2.31601C11.1381 1.89163 12.8612 1.89232 14.503 2.31801V2.31801C14.4161 3.97258 15.6869 5.38436 17.3414 5.4713C17.9751 5.5046 18.6031 5.33609 19.135 4.99C19.714 5.58 20.228 6.251 20.66 7C21.093 7.749 21.417 8.53 21.638 9.326C20.1612 10.0771 19.5729 11.8832 20.324 13.36C20.6116 13.9254 21.0709 14.385 21.636 14.673C21.184 16.3075 20.3233 17.8001 19.135 19.01C17.7459 18.1069 15.8877 18.5009 14.9846 19.89C14.6387 20.4221 14.4704 21.0502 14.504 21.684C12.8619 22.1084 11.1388 22.1077 9.497 21.682C9.58394 20.0274 8.31313 18.6156 6.65856 18.5287C6.02485 18.4954 5.3969 18.6639 4.865 19.01L4.865 19.01C4.27399 18.4069 3.7616 17.7316 3.34 17L3.34 17ZM9 17.196C10.0656 17.8106 10.8668 18.797 11.25 19.966C11.749 20.013 12.25 20.014 12.749 19.967H12.749C13.1324 18.7979 13.934 17.8114 15 17.197C16.0652 16.5807 17.3205 16.3795 18.525 16.632C18.815 16.224 19.065 15.789 19.273 15.334V15.334C18.4524 14.4174 17.9991 13.2302 18 12C18 10.74 18.47 9.563 19.273 8.666C19.0635 8.21115 18.8125 7.77664 18.523 7.368C17.3193 7.62031 16.0648 7.41948 15 6.804C13.9344 6.18938 13.1332 5.20298 12.75 4.034C12.251 3.987 11.75 3.986 11.251 4.033C10.8676 5.20215 10.066 6.18856 9 6.803H9C7.93478 7.41932 6.67948 7.62052 5.475 7.368L5.475 7.368C5.18557 7.77629 4.93513 8.21087 4.727 8.666H4.727C5.54757 9.58256 6.00088 10.7698 6 12C6 13.26 5.53 14.437 4.727 15.334L4.727 15.334C4.93647 15.7889 5.18754 16.2234 5.477 16.632H5.477C6.68072 16.3797 7.93521 16.5805 9 17.196V17.196ZM12 15C10.3431 15 9 13.6569 9 12C9 10.3432 10.3431 9 12 9C13.6568 9 15 10.3432 15 12C15 13.6569 13.6568 15 12 15ZM12 13C12.5523 13 13 12.5523 13 12C13 11.4477 12.5523 11 12 11C11.4477 11 11 11.4477 11 12C11 12.5523 11.4477 13 12 13Z" fill="black"/>
</g>
<defs>
<clipPath id="clip0_4312_359">
<rect width="24" height="24" fill="white"/>
</clipPath>
</defs>
</svg>
